<svg width="84" height="42" viewBox="0 0 84 42" fill="none" xmlns="http://www.w3.org/2000/svg">
<rect x="0.25" y="0.25" width="83.5" height="41.5" rx="20.75" fill="white" stroke="#E7E7E7" stroke-width="0.5"/>
<ellipse cx="62.2381" cy="21.0022" rx="14.9968" ry="14.9983" fill="#3056D3"/>
<g clip-path="url(#clip0_121_55907)">
<path fill-rule="evenodd" clip-rule="evenodd" d="M64.306 25.3539L67.8851 21.7745C68.1047 21.5548 68.1047 21.1987 67.8851 20.979L64.306 17.3996C64.0864 17.1799 63.7303 17.1799 63.5107 17.3996C63.291 17.6193 63.291 17.9754 63.5107 18.195L66.1297 20.8143H57.7392C57.4286 20.8143 57.1768 21.0661 57.1768 21.3768C57.1768 21.6874 57.4286 21.9392 57.7392 21.9392H66.1297L63.5107 24.5585C63.291 24.7782 63.291 25.1342 63.5107 25.3539C63.7303 25.5735 64.0864 25.5735 64.306 25.3539Z" fill="white"/>
</g>
<path d="M6.49947 20.9998C6.49947 12.9926 12.99 6.50151 20.9963 6.5015C29.0027 6.5015 35.4932 12.9926 35.4932 20.9998C35.4932 29.007 29.0027 35.498 20.9963 35.498C12.99 35.498 6.49947 29.007 6.49947 20.9998Z" fill="white" stroke="#E7E7E7"/>
<g clip-path="url(#clip1_121_55907)">
<path fill-rule="evenodd" clip-rule="evenodd" d="M18.9283 16.6481L15.3493 20.2275C15.1296 20.4471 15.1296 20.8033 15.3493 21.0229L18.9283 24.6024C19.148 24.822 19.5041 24.822 19.7237 24.6024C19.9433 24.3827 19.9433 24.0266 19.7237 23.8069L17.1047 21.1876L25.4952 21.1876C25.8058 21.1876 26.0576 20.9358 26.0576 20.6252C26.0576 20.3146 25.8058 20.0627 25.4952 20.0627L17.1047 20.0627L19.7237 17.4435C19.9433 17.2238 19.9433 16.8677 19.7237 16.6481C19.5041 16.4284 19.148 16.4284 18.9283 16.6481Z" fill="#637381"/>
</g>
<defs>
<clipPath id="clip0_121_55907">
<rect width="11.248" height="9.74922" fill="white" transform="translate(56.9893 16.502)"/>
</clipPath>
<clipPath id="clip1_121_55907">
<rect width="11.248" height="9.74922" fill="white" transform="translate(26.2451 25.5) rotate(180)"/>
</clipPath>
</defs>
</svg>
